<?xml version="1.0" standalone="no"?>
<!DOCTYPE svg PUBLIC "-//W3C//DTD SVG 20010904//EN"
 "http://www.w3.org/TR/2001/REC-SVG-20010904/DTD/svg10.dtd">
<svg version="1.0" xmlns="http://www.w3.org/2000/svg"
 width="618.000000pt" height="618.000000pt" viewBox="0 0 618.000000 618.000000"
 preserveAspectRatio="xMidYMid meet">
<metadata>
Created by potrace 1.14, written by Peter Selinger 2001-2017
</metadata>
<g transform="translate(0.000000,618.000000) scale(0.100000,-0.100000)"
fill="#000000" stroke="none">
<path d="M2302 4967 c0 -370 -1 -679 -1 -687 -1 -13 -38 -15 -275 -14 l-274 2
1 -123 0 -122 264 1 c146 1 270 -2 275 -5 7 -5 11 -231 12 -690 l1 -684 146
-2 146 -1 -1 680 c-1 374 2 685 6 691 4 7 234 11 755 11 l748 1 0 -1795 0
-1795 120 0 120 0 2 2597 1 2597 -122 -1 -123 -1 1 -681 1 -681 -746 1 c-410
1 -750 3 -755 7 -5 3 -9 292 -8 684 l1 680 -147 1 -147 0 -1 -671z"/>
<path d="M4503 4160 c0 -25 2 -35 4 -22 2 12 2 32 0 45 -2 12 -4 2 -4 -23z"/>
</g>
</svg>
